<mxfile host="app.diagrams.net" modified="2023-08-09T02:58:22.898Z" agent="Mozilla/5.0 (Windows NT 10.0; Win64; x64) AppleWebKit/537.36 (KHTML, like Gecko) Chrome/115.0.0.0 Safari/537.36" etag="gaqBi5EQ5__rVqZ35rqf" version="21.6.7" type="github">
  <diagram name="Page-1" id="t8YykXuLGxyKTEL0lErA">
    <mxGraphModel dx="1080" dy="1433" grid="1" gridSize="10" guides="1" tooltips="1" connect="1" arrows="1" fold="1" page="1" pageScale="1" pageWidth="1169" pageHeight="827" background="#ffffff" math="0" shadow="1">
      <root>
        <mxCell id="0" />
        <mxCell id="1" parent="0" />
        <mxCell id="xWJ1TwTEUtmIrzbeGdE--28" style="edgeStyle=orthogonalEdgeStyle;rounded=0;orthogonalLoop=1;jettySize=auto;html=1;exitX=0;exitY=0;exitDx=0;exitDy=0;exitPerimeter=0;entryX=1;entryY=0;entryDx=0;entryDy=0;entryPerimeter=0;fillColor=#dae8fc;strokeColor=#6c8ebf;strokeWidth=4;" edge="1" parent="1" source="xWJ1TwTEUtmIrzbeGdE--1" target="xWJ1TwTEUtmIrzbeGdE--17">
          <mxGeometry relative="1" as="geometry">
            <Array as="points">
              <mxPoint x="822" y="-623" />
              <mxPoint x="822" y="-545" />
              <mxPoint x="591" y="-545" />
            </Array>
          </mxGeometry>
        </mxCell>
        <mxCell id="xWJ1TwTEUtmIrzbeGdE--31" style="edgeStyle=orthogonalEdgeStyle;rounded=0;orthogonalLoop=1;jettySize=auto;html=1;exitX=0;exitY=0.5;exitDx=0;exitDy=0;exitPerimeter=0;entryX=1;entryY=0.5;entryDx=0;entryDy=0;entryPerimeter=0;fillColor=#d5e8d4;strokeColor=#82b366;strokeWidth=4;" edge="1" parent="1" source="xWJ1TwTEUtmIrzbeGdE--1" target="xWJ1TwTEUtmIrzbeGdE--17">
          <mxGeometry relative="1" as="geometry">
            <Array as="points">
              <mxPoint x="862" y="-456" />
            </Array>
          </mxGeometry>
        </mxCell>
        <mxCell id="xWJ1TwTEUtmIrzbeGdE--39" style="edgeStyle=orthogonalEdgeStyle;rounded=0;orthogonalLoop=1;jettySize=auto;html=1;exitX=-0.02;exitY=0.897;exitDx=0;exitDy=0;exitPerimeter=0;entryX=0.47;entryY=0.846;entryDx=0;entryDy=0;entryPerimeter=0;strokeWidth=4;" edge="1" parent="1" source="xWJ1TwTEUtmIrzbeGdE--1" target="xWJ1TwTEUtmIrzbeGdE--18">
          <mxGeometry relative="1" as="geometry">
            <Array as="points">
              <mxPoint x="747" y="-325" />
              <mxPoint x="747" y="-346" />
            </Array>
          </mxGeometry>
        </mxCell>
        <mxCell id="xWJ1TwTEUtmIrzbeGdE--1" value="&lt;b&gt;&lt;font style=&quot;font-size: 16px;&quot;&gt;Huawei&lt;/font&gt;&lt;/b&gt;" style="verticalLabelPosition=bottom;html=1;verticalAlign=top;align=center;strokeColor=none;fillColor=#00BEF2;shape=mxgraph.azure.enterprise;pointerEvents=1;" vertex="1" parent="1">
          <mxGeometry x="882" y="-623.5" width="210" height="335" as="geometry" />
        </mxCell>
        <mxCell id="xWJ1TwTEUtmIrzbeGdE--7" value="&lt;b&gt;&lt;font style=&quot;font-size: 16px;&quot;&gt;DIGICEL&lt;/font&gt;&lt;/b&gt;" style="sketch=0;aspect=fixed;pointerEvents=1;shadow=0;dashed=0;html=1;strokeColor=none;labelPosition=center;verticalLabelPosition=bottom;verticalAlign=top;align=center;fillColor=#FF0000;shape=mxgraph.mscae.enterprise.internet_hollow" vertex="1" parent="1">
          <mxGeometry x="92" y="-640" width="564.53" height="350" as="geometry" />
        </mxCell>
        <mxCell id="xWJ1TwTEUtmIrzbeGdE--37" style="edgeStyle=orthogonalEdgeStyle;rounded=0;orthogonalLoop=1;jettySize=auto;html=1;exitX=1;exitY=0;exitDx=0;exitDy=0;exitPerimeter=0;entryX=0.479;entryY=0.15;entryDx=0;entryDy=0;entryPerimeter=0;fillColor=#ffe6cc;strokeColor=#d79b00;strokeWidth=4;" edge="1" parent="1" source="xWJ1TwTEUtmIrzbeGdE--13" target="xWJ1TwTEUtmIrzbeGdE--17">
          <mxGeometry relative="1" as="geometry">
            <Array as="points">
              <mxPoint x="414" y="-565" />
              <mxPoint x="550" y="-565" />
            </Array>
          </mxGeometry>
        </mxCell>
        <mxCell id="xWJ1TwTEUtmIrzbeGdE--13" value="&lt;b&gt;UMM&lt;/b&gt;" style="sketch=0;aspect=fixed;pointerEvents=1;shadow=0;dashed=0;html=1;strokeColor=none;labelPosition=center;verticalLabelPosition=bottom;verticalAlign=top;align=center;fillColor=#00188D;shape=mxgraph.mscae.enterprise.application" vertex="1" parent="1">
          <mxGeometry x="326.03" y="-605" width="88.24" height="60" as="geometry" />
        </mxCell>
        <mxCell id="xWJ1TwTEUtmIrzbeGdE--14" value="&lt;b&gt;DTS&lt;/b&gt;" style="sketch=0;aspect=fixed;pointerEvents=1;shadow=0;dashed=0;html=1;strokeColor=none;labelPosition=center;verticalLabelPosition=bottom;verticalAlign=top;align=center;fillColor=#00188D;shape=mxgraph.mscae.enterprise.application" vertex="1" parent="1">
          <mxGeometry x="202" y="-497.8" width="110" height="74.8" as="geometry" />
        </mxCell>
        <mxCell id="xWJ1TwTEUtmIrzbeGdE--15" value="&lt;b&gt;EPIN&lt;/b&gt;" style="sketch=0;aspect=fixed;pointerEvents=1;shadow=0;dashed=0;html=1;strokeColor=none;labelPosition=center;verticalLabelPosition=bottom;verticalAlign=top;align=center;fillColor=#00188D;shape=mxgraph.mscae.enterprise.application" vertex="1" parent="1">
          <mxGeometry x="162" y="-390" width="80" height="54.4" as="geometry" />
        </mxCell>
        <mxCell id="xWJ1TwTEUtmIrzbeGdE--29" style="edgeStyle=orthogonalEdgeStyle;rounded=0;orthogonalLoop=1;jettySize=auto;html=1;exitX=0;exitY=0;exitDx=0;exitDy=0;exitPerimeter=0;entryX=1;entryY=0.5;entryDx=0;entryDy=0;fillColor=#dae8fc;strokeColor=#6c8ebf;strokeWidth=4;" edge="1" parent="1" source="xWJ1TwTEUtmIrzbeGdE--17" target="xWJ1TwTEUtmIrzbeGdE--23">
          <mxGeometry relative="1" as="geometry" />
        </mxCell>
        <mxCell id="xWJ1TwTEUtmIrzbeGdE--32" style="edgeStyle=orthogonalEdgeStyle;rounded=0;orthogonalLoop=1;jettySize=auto;html=1;exitX=0;exitY=0.5;exitDx=0;exitDy=0;exitPerimeter=0;entryX=0.403;entryY=0.522;entryDx=0;entryDy=0;entryPerimeter=0;fillColor=#d5e8d4;strokeColor=#82b366;strokeWidth=4;" edge="1" parent="1" source="xWJ1TwTEUtmIrzbeGdE--17" target="xWJ1TwTEUtmIrzbeGdE--18">
          <mxGeometry relative="1" as="geometry" />
        </mxCell>
        <mxCell id="xWJ1TwTEUtmIrzbeGdE--38" style="edgeStyle=orthogonalEdgeStyle;rounded=0;orthogonalLoop=1;jettySize=auto;html=1;exitX=0.5;exitY=1;exitDx=0;exitDy=0;exitPerimeter=0;entryX=0.048;entryY=0.731;entryDx=0;entryDy=0;entryPerimeter=0;strokeColor=#d79b00;fillColor=#ffe6cc;strokeWidth=4;" edge="1" parent="1" source="xWJ1TwTEUtmIrzbeGdE--17" target="xWJ1TwTEUtmIrzbeGdE--1">
          <mxGeometry relative="1" as="geometry" />
        </mxCell>
        <mxCell id="xWJ1TwTEUtmIrzbeGdE--17" value="&lt;b&gt;FIREWALL&lt;/b&gt;" style="sketch=0;aspect=fixed;pointerEvents=1;shadow=0;dashed=0;html=1;strokeColor=none;labelPosition=center;verticalLabelPosition=bottom;verticalAlign=top;align=center;fillColor=#00188D;shape=mxgraph.mscae.enterprise.firewall" vertex="1" parent="1">
          <mxGeometry x="512" y="-491" width="79.54" height="70" as="geometry" />
        </mxCell>
        <mxCell id="xWJ1TwTEUtmIrzbeGdE--36" style="edgeStyle=orthogonalEdgeStyle;rounded=0;orthogonalLoop=1;jettySize=auto;html=1;exitX=0;exitY=0.5;exitDx=0;exitDy=0;exitPerimeter=0;entryX=0.5;entryY=1;entryDx=0;entryDy=0;fillColor=#d5e8d4;strokeColor=#82b366;strokeWidth=4;" edge="1" parent="1" source="xWJ1TwTEUtmIrzbeGdE--18" target="xWJ1TwTEUtmIrzbeGdE--24">
          <mxGeometry relative="1" as="geometry" />
        </mxCell>
        <mxCell id="xWJ1TwTEUtmIrzbeGdE--40" style="edgeStyle=orthogonalEdgeStyle;rounded=0;orthogonalLoop=1;jettySize=auto;html=1;exitX=0;exitY=1;exitDx=0;exitDy=0;exitPerimeter=0;strokeWidth=4;" edge="1" parent="1" source="xWJ1TwTEUtmIrzbeGdE--18" target="xWJ1TwTEUtmIrzbeGdE--15">
          <mxGeometry relative="1" as="geometry">
            <Array as="points">
              <mxPoint x="442" y="-355" />
            </Array>
          </mxGeometry>
        </mxCell>
        <mxCell id="xWJ1TwTEUtmIrzbeGdE--18" value="&lt;b&gt;BRIDGE&lt;/b&gt;" style="sketch=0;aspect=fixed;pointerEvents=1;shadow=0;dashed=0;html=1;strokeColor=none;labelPosition=center;verticalLabelPosition=bottom;verticalAlign=top;align=center;fillColor=#00188D;shape=mxgraph.mscae.enterprise.domain_controller" vertex="1" parent="1">
          <mxGeometry x="442" y="-404.6" width="49.68" height="69" as="geometry" />
        </mxCell>
        <mxCell id="xWJ1TwTEUtmIrzbeGdE--30" style="edgeStyle=orthogonalEdgeStyle;rounded=0;orthogonalLoop=1;jettySize=auto;html=1;exitX=0;exitY=0.25;exitDx=0;exitDy=0;entryX=1;entryY=0;entryDx=0;entryDy=0;entryPerimeter=0;fillColor=#dae8fc;strokeColor=#6c8ebf;strokeWidth=4;" edge="1" parent="1" source="xWJ1TwTEUtmIrzbeGdE--23" target="xWJ1TwTEUtmIrzbeGdE--14">
          <mxGeometry relative="1" as="geometry" />
        </mxCell>
        <mxCell id="xWJ1TwTEUtmIrzbeGdE--23" value="REFILL" style="rounded=1;whiteSpace=wrap;html=1;arcSize=50;" vertex="1" parent="1">
          <mxGeometry x="364.27" y="-497.8" width="50" height="23.5" as="geometry" />
        </mxCell>
        <mxCell id="xWJ1TwTEUtmIrzbeGdE--35" style="edgeStyle=orthogonalEdgeStyle;rounded=0;orthogonalLoop=1;jettySize=auto;html=1;exitX=0;exitY=0.5;exitDx=0;exitDy=0;fillColor=#d5e8d4;strokeColor=#82b366;strokeWidth=4;" edge="1" parent="1" source="xWJ1TwTEUtmIrzbeGdE--24" target="xWJ1TwTEUtmIrzbeGdE--14">
          <mxGeometry relative="1" as="geometry">
            <Array as="points">
              <mxPoint x="320" y="-416" />
              <mxPoint x="320" y="-451" />
            </Array>
          </mxGeometry>
        </mxCell>
        <mxCell id="xWJ1TwTEUtmIrzbeGdE--24" value="PLAN ACTIVATION" style="rounded=1;whiteSpace=wrap;html=1;arcSize=50;" vertex="1" parent="1">
          <mxGeometry x="340.27" y="-445" width="89.73" height="30" as="geometry" />
        </mxCell>
        <mxCell id="xWJ1TwTEUtmIrzbeGdE--42" value="pappadap" style="text;html=1;strokeColor=none;fillColor=none;align=center;verticalAlign=middle;whiteSpace=wrap;rounded=0;fontSize=20;fontFamily=Architects Daughter;" vertex="1" parent="1">
          <mxGeometry x="286" y="-386" width="60" height="30" as="geometry" />
        </mxCell>
        <mxCell id="xWJ1TwTEUtmIrzbeGdE--45" value="&lt;u&gt;SUPPORTS&lt;/u&gt;" style="text;html=1;strokeColor=none;fillColor=none;align=center;verticalAlign=middle;whiteSpace=wrap;rounded=0;fontSize=20;fontFamily=Architects Daughter;" vertex="1" parent="1">
          <mxGeometry x="42" y="-278" width="100" height="50" as="geometry" />
        </mxCell>
        <mxCell id="xWJ1TwTEUtmIrzbeGdE--46" value="Umm" style="text;html=1;strokeColor=none;fillColor=none;align=center;verticalAlign=middle;whiteSpace=wrap;rounded=0;fontSize=20;fontFamily=Architects Daughter;imageAlign=left;imageAspect=1;" vertex="1" parent="1">
          <mxGeometry x="33" y="-224" width="60" height="30" as="geometry" />
        </mxCell>
        <mxCell id="xWJ1TwTEUtmIrzbeGdE--47" value="DTS" style="text;html=1;strokeColor=none;fillColor=none;align=center;verticalAlign=middle;whiteSpace=wrap;rounded=0;fontSize=20;fontFamily=Architects Daughter;imageAlign=left;imageAspect=1;" vertex="1" parent="1">
          <mxGeometry x="30" y="-187" width="60" height="30" as="geometry" />
        </mxCell>
        <mxCell id="xWJ1TwTEUtmIrzbeGdE--48" value="EPIN" style="text;html=1;strokeColor=none;fillColor=none;align=center;verticalAlign=middle;whiteSpace=wrap;rounded=0;fontSize=20;fontFamily=Architects Daughter;imageAlign=left;imageAspect=1;" vertex="1" parent="1">
          <mxGeometry x="32" y="-147" width="60" height="30" as="geometry" />
        </mxCell>
        <mxCell id="xWJ1TwTEUtmIrzbeGdE--49" value="Bridge" style="text;html=1;strokeColor=none;fillColor=none;align=center;verticalAlign=middle;whiteSpace=wrap;rounded=0;fontSize=20;fontFamily=Architects Daughter;imageAlign=left;imageAspect=1;" vertex="1" parent="1">
          <mxGeometry x="42" y="-109" width="60" height="30" as="geometry" />
        </mxCell>
        <mxCell id="xWJ1TwTEUtmIrzbeGdE--50" value="Firewall" style="text;html=1;strokeColor=none;fillColor=none;align=center;verticalAlign=middle;whiteSpace=wrap;rounded=0;fontSize=20;fontFamily=Architects Daughter;imageAlign=left;imageAspect=1;" vertex="1" parent="1">
          <mxGeometry x="45" y="-69" width="60" height="30" as="geometry" />
        </mxCell>
        <mxCell id="xWJ1TwTEUtmIrzbeGdE--53" value="CME (programming,plugin dev. )" style="text;html=1;strokeColor=none;fillColor=none;align=center;verticalAlign=middle;whiteSpace=wrap;rounded=0;fontSize=20;fontFamily=Architects Daughter;" vertex="1" parent="1">
          <mxGeometry x="157.99999999999997" y="-224" width="370" height="30" as="geometry" />
        </mxCell>
        <mxCell id="xWJ1TwTEUtmIrzbeGdE--54" value="Digicel Group" style="text;html=1;strokeColor=none;fillColor=none;align=center;verticalAlign=middle;whiteSpace=wrap;rounded=0;fontSize=20;fontFamily=Architects Daughter;" vertex="1" parent="1">
          <mxGeometry x="193" y="-187" width="139.16" height="30" as="geometry" />
        </mxCell>
        <mxCell id="xWJ1TwTEUtmIrzbeGdE--55" value="Inswitch" style="text;html=1;strokeColor=none;fillColor=none;align=center;verticalAlign=middle;whiteSpace=wrap;rounded=0;fontSize=20;fontFamily=Architects Daughter;" vertex="1" parent="1">
          <mxGeometry x="168.10999999999999" y="-147" width="139.16" height="30" as="geometry" />
        </mxCell>
        <mxCell id="xWJ1TwTEUtmIrzbeGdE--56" value="IT Team" style="text;html=1;strokeColor=none;fillColor=none;align=center;verticalAlign=middle;whiteSpace=wrap;rounded=0;fontSize=20;fontFamily=Architects Daughter;" vertex="1" parent="1">
          <mxGeometry x="167" y="-109" width="139.16" height="30" as="geometry" />
        </mxCell>
        <mxCell id="xWJ1TwTEUtmIrzbeGdE--57" value="IP Team" style="text;html=1;strokeColor=none;fillColor=none;align=center;verticalAlign=middle;whiteSpace=wrap;rounded=0;fontSize=20;fontFamily=Architects Daughter;" vertex="1" parent="1">
          <mxGeometry x="168.11" y="-69" width="139.16" height="30" as="geometry" />
        </mxCell>
        <mxCell id="xWJ1TwTEUtmIrzbeGdE--58" value="&lt;b&gt;&lt;font style=&quot;font-size: 16px;&quot;&gt;Bank&lt;/font&gt;&lt;/b&gt;" style="sketch=0;aspect=fixed;pointerEvents=1;shadow=0;dashed=0;html=1;strokeColor=none;labelPosition=center;verticalLabelPosition=bottom;verticalAlign=top;align=center;fillColor=#FF0000;shape=mxgraph.mscae.enterprise.internet_hollow" vertex="1" parent="1">
          <mxGeometry x="530" y="-800" width="217.1" height="134.6" as="geometry" />
        </mxCell>
        <mxCell id="xWJ1TwTEUtmIrzbeGdE--61" style="edgeStyle=orthogonalEdgeStyle;rounded=1;hachureGap=4;orthogonalLoop=1;jettySize=auto;html=1;exitX=1;exitY=0.5;exitDx=0;exitDy=0;fontFamily=Architects Daughter;fontSource=https%3A%2F%2Ffonts.googleapis.com%2Fcss%3Ffamily%3DArchitects%2BDaughter;fontSize=16;entryX=0.111;entryY=-0.022;entryDx=0;entryDy=0;entryPerimeter=0;" edge="1" parent="1" source="xWJ1TwTEUtmIrzbeGdE--59" target="xWJ1TwTEUtmIrzbeGdE--1">
          <mxGeometry relative="1" as="geometry">
            <mxPoint x="900" y="-680" as="targetPoint" />
          </mxGeometry>
        </mxCell>
        <mxCell id="xWJ1TwTEUtmIrzbeGdE--59" value="SOGEBANK" style="rounded=1;whiteSpace=wrap;html=1;arcSize=50;" vertex="1" parent="1">
          <mxGeometry x="590" y="-745.4" width="95.47" height="50" as="geometry" />
        </mxCell>
      </root>
    </mxGraphModel>
  </diagram>
</mxfile>
